<?xml version="1.0" encoding="UTF-8" standalone="no"?>
<svg
   width="450"
   height="512"
   viewBox="0 0 450 512"
   version="1.1"
   id="svg14"
   xmlns="http://www.w3.org/2000/svg"
   xmlns:svg="http://www.w3.org/2000/svg">
  <defs
     id="defs18" />
  <g
     transform="matrix(9.072578,0,0,9.1041081,6.6736472e-5,0.03799947)"
     fill="#1e1e1e"
     id="g4">
    <path
       d="M 23.11,55.78 1.69,43.41 A 3.39,3.39 0 0 1 0,40.48 V 15.75 A 3.39,3.39 0 0 1 1.69,12.81 L 23.11,0.45 a 3.39,3.39 0 0 1 3.39,0 l 21.41,12.37 a 3.39,3.39 0 0 1 1.69,2.94 v 24.72 a 3.39,3.39 0 0 1 -1.69,2.94 L 26.5,55.78 a 3.39,3.39 0 0 1 -3.39,0 z"
       id="path2" />
  </g>
  <g
     transform="matrix(1.0259466,0,0,1.005682,52.079655,111.38756)"
     fill="#ffffff"
     id="g8">
    <path
       d="m 262.1,163.849 c -0.412,-8.09 -7.304,-14.314 -15.394,-13.902 -6.169,0.315 -11.243,4.402 -13.126,9.911 l -22.317,-3.312 c 0.039,-0.736 0.061,-1.476 0.061,-2.221 0,-22.92 -18.58,-41.5 -41.5,-41.5 -6.539,0 -12.721,1.517 -18.223,4.21 L 131.519,79.661 c 2.842,-2.153 5.063,-5.178 6.168,-8.853 2.776,-9.223 -2.451,-18.95 -11.674,-21.726 -9.223,-2.775 -18.95,2.451 -21.726,11.674 -2.776,9.223 2.451,18.95 11.673,21.725 3.637,1.095 7.346,0.929 10.682,-0.219 l 20.166,37.529 c -9.361,6.251 -16.032,16.207 -17.928,27.771 l -23.998,-1.236 c -0.564,-7.759 -7.022,-13.882 -14.925,-13.882 -8.274,0 -14.982,6.708 -14.982,14.981 0,8.274 6.708,14.982 14.982,14.982 6.741,0 12.44,-4.454 14.321,-10.579 l 24.077,1.239 c -0.012,0.418 -0.032,0.834 -0.032,1.256 0,14.214 7.149,26.753 18.044,34.233 l -19.076,19.068 c -2.854,-2.038 -6.337,-3.25 -10.111,-3.251 -9.632,-0.002 -17.441,7.805 -17.443,17.437 -0.002,9.632 7.805,17.441 17.437,17.443 9.632,0.002 17.441,-7.805 17.443,-17.437 0.001,-3.862 -1.269,-7.419 -3.393,-10.309 l 20.063,-20.056 c 5.58,2.792 11.872,4.371 18.536,4.371 20.328,0 37.23,-14.619 40.796,-33.915 l 22.185,3.292 c 0.002,0.046 -0.002,0.092 0,0.138 0.412,8.09 7.304,14.314 15.395,13.902 8.089,-0.408 14.312,-7.301 13.901,-15.39 z M 118.514,73.997 c -4.537,-1.365 -7.107,-6.15 -5.742,-10.686 1.365,-4.537 6.149,-7.108 10.686,-5.743 4.537,1.365 7.107,6.15 5.742,10.687 -1.365,4.537 -6.149,7.107 -10.686,5.742 z m -28.557,82.161 c -4.823,0 -8.732,-3.91 -8.732,-8.732 0,-4.822 3.909,-8.731 8.732,-8.731 4.822,0 8.731,3.909 8.731,8.731 0,4.822 -3.909,8.732 -8.731,8.732 z m 27.218,74.483 c -4.874,-0.001 -8.825,-3.954 -8.824,-8.827 0,-4.875 3.953,-8.826 8.827,-8.825 2.292,0.001 4.374,0.883 5.942,2.316 l 0.568,0.568 c 1.433,1.569 2.313,3.651 2.313,5.944 10e-4,4.874 -3.952,8.825 -8.826,8.824 z m 52.648,-50.633 c -14.186,0 -25.685,-11.499 -25.685,-25.684 0,-14.186 11.499,-25.685 25.685,-25.685 14.185,0 25.684,11.499 25.684,25.685 -0.001,14.185 -11.5,25.684 -25.684,25.684 z m 77.994,-8.239 c -3.963,0.202 -7.339,-2.847 -7.541,-6.81 -0.202,-3.962 2.847,-7.338 6.809,-7.54 3.963,-0.202 7.339,2.847 7.541,6.81 0.202,3.962 -2.846,7.338 -6.809,7.54 z"
       id="path6" />
  </g>
</svg>
